<?xml version="1.0" encoding="utf-8"?>
<!-- Generator: Adobe Adobe Illustrator 24.2.0, SVG Export Plug-In . SVG Version: 6.00 Build 0)  -->
<svg version="1.1" xmlns="http://www.w3.org/2000/svg" xmlns:xlink="http://www.w3.org/1999/xlink" x="0px" y="0px" width="24px"
	 height="24px" viewBox="0 0 24 24" style="enable-background:new 0 0 24 24;" xml:space="preserve">
<style type="text/css">
	.st0{fill:none;}
	.st1{fill:#6489FA;}
</style>
<g id="Layer_2">
	<g>
		<rect x="12.21" y="12.43" class="st0" width="0.12" height="0.02"/>
	</g>
	<g>
		<rect x="9.86" y="10.75" class="st0" width="0.07" height="0.07"/>
	</g>
	<g>
		<path class="st1" d="M9.62,13.55h1.61v2.28H9.62v3.08H6.8v-3.08H0.97l-0.13-1.78l5.93-9.37h2.85V13.55z M3.66,13.55H6.8V8.53
			L6.62,8.85L3.66,13.55z"/>
		<path class="st1" d="M22.5,18.9h-9.75v-1.93l4.6-4.9c0.63-0.69,1.1-1.29,1.4-1.81s0.45-1,0.45-1.46c0-0.63-0.16-1.13-0.48-1.49
			s-0.77-0.54-1.37-0.54c-0.64,0-1.14,0.22-1.51,0.66S15.3,8.44,15.3,9.16h-2.83c0-0.87,0.21-1.66,0.62-2.37s1-1.28,1.75-1.68
			s1.61-0.61,2.57-0.61c1.46,0,2.6,0.35,3.41,1.05s1.22,1.7,1.22,2.98c0,0.7-0.18,1.42-0.55,2.15s-0.99,1.58-1.88,2.55l-3.23,3.41
			h6.11V18.9z"/>
	</g>
</g>
<g id="Layer_3">
</g>
</svg>
